# xmcd
#
# Track frame offsets: 
#        150
#        24058
#        38380
#        67924
#        92268
#        110416
#        159403
#        192069
#
# Disc length: 2745 seconds
#
# Revision: 0
# Processed by: cddbd v1.4PL0 Copyright (c) Steve Scherf et al.
# Submitted via: ExactAudioCopy v0.95a3
#
DISCID=470ab708
DTITLE=Savoy Brown - Street Corner Talking
DYEAR=1900
DGENRE=Blues
TTITLE0=Tell Mama
TTITLE1=Let It Rock (Rock And Roll On The Radio)
TTITLE2=I Can't Get Next To You
TTITLE3=Time Does Tell
TTITLE4=Street Corner Talking
TTITLE5=All I Can Do
TTITLE6=Wang Dang Doodle
TTITLE7=Tell Mama - Single Version
EXTD=
EXTT0=
EXTT1=
EXTT2=
EXTT3=
EXTT4=
EXTT5=
EXTT6=
EXTT7=
PLAYORDER=
